<svg width="629" height="21" viewBox="0 0 629 21" fill="none" xmlns="http://www.w3.org/2000/svg">
<path d="M10.918 10.1797C10.918 11.1693 10.6315 11.9277 10.0586 12.4551C9.49219 12.9824 8.68815 13.2461 7.64648 13.2461C6.60482 13.2461 5.77474 12.901 5.15625 12.2109C4.54427 11.5143 4.23828 10.5801 4.23828 9.4082V8.30469C4.23828 7.17188 4.54753 6.26042 5.16602 5.57031C5.79102 4.8737 6.61784 4.52539 7.64648 4.52539C8.70768 4.52539 9.51823 4.79557 10.0781 5.33594C10.6445 5.86979 10.9277 6.62174 10.9277 7.5918H9.4043C9.4043 6.9668 9.25456 6.52083 8.95508 6.25391C8.6556 5.98047 8.2194 5.84375 7.64648 5.84375C7.04753 5.84375 6.57878 6.0651 6.24023 6.50781C5.9082 6.95052 5.74219 7.55599 5.74219 8.32422V9.4668C5.74219 10.235 5.91146 10.8372 6.25 11.2734C6.58854 11.7096 7.05404 11.9277 7.64648 11.9277C8.22591 11.9277 8.66211 11.7975 8.95508 11.5371C9.24805 11.2702 9.39453 10.8177 9.39453 10.1797H10.918ZM13.5156 8.88086C13.5156 7.80013 13.2715 6.79753 12.7832 5.87305C12.2949 4.94206 11.6048 4.19987 10.7129 3.64648C9.82096 3.08659 8.8444 2.80664 7.7832 2.80664C6.74805 2.80664 5.78451 3.07357 4.89258 3.60742C4.00716 4.14128 3.31055 4.87695 2.80273 5.81445C2.29492 6.75195 2.04102 7.77409 2.04102 8.88086C2.04102 9.98763 2.29167 11.0098 2.79297 11.9473C3.30078 12.8848 3.9974 13.627 4.88281 14.1738C5.77474 14.7142 6.74154 14.9844 7.7832 14.9844C8.82487 14.9844 9.79167 14.7077 10.6836 14.1543C11.582 13.6009 12.2786 12.8555 12.7734 11.918C13.2682 10.9805 13.5156 9.9681 13.5156 8.88086ZM0.849609 8.88086C0.849609 7.56576 1.15234 6.34505 1.75781 5.21875C2.36979 4.09245 3.21289 3.20703 4.28711 2.5625C5.36784 1.91146 6.5332 1.58594 7.7832 1.58594C9.0332 1.58594 10.1953 1.91146 11.2695 2.5625C12.3438 3.20703 13.1836 4.09245 13.7891 5.21875C14.401 6.34505 14.707 7.56576 14.707 8.88086C14.707 10.196 14.401 11.4167 13.7891 12.543C13.1836 13.6693 12.347 14.5612 11.2793 15.2188C10.2116 15.8698 9.04622 16.1953 7.7832 16.1953C6.52669 16.1953 5.36133 15.8698 4.28711 15.2188C3.2194 14.5677 2.37956 13.679 1.76758 12.5527C1.1556 11.4264 0.849609 10.2025 0.849609 8.88086ZM31.2695 16H21.709V14.3691L26.4453 9.20312C27.1289 8.44141 27.6139 7.80664 27.9004 7.29883C28.1934 6.78451 28.3398 6.27018 28.3398 5.75586C28.3398 5.07878 28.1478 4.5319 27.7637 4.11523C27.3861 3.69857 26.875 3.49023 26.2305 3.49023C25.4622 3.49023 24.8665 3.72461 24.4434 4.19336C24.0202 4.66211 23.8086 5.30339 23.8086 6.11719H21.4355C21.4355 5.2513 21.6309 4.47331 22.0215 3.7832C22.4186 3.08659 22.9818 2.54622 23.7109 2.16211C24.4466 1.77799 25.293 1.58594 26.25 1.58594C27.6302 1.58594 28.7174 1.93424 29.5117 2.63086C30.3125 3.32096 30.7129 4.27799 30.7129 5.50195C30.7129 6.21159 30.5111 6.95703 30.1074 7.73828C29.7103 8.51302 29.056 9.39518 28.1445 10.3848L24.668 14.1055H31.2695V16ZM42.3438 10.0137C42.3438 12.0579 41.9596 13.6009 41.1914 14.6426C40.4297 15.6777 39.2676 16.1953 37.7051 16.1953C36.1686 16.1953 35.0098 15.6908 34.2285 14.6816C33.4538 13.666 33.0566 12.1654 33.0371 10.1797V7.71875C33.0371 5.67448 33.418 4.14128 34.1797 3.11914C34.9479 2.09701 36.1165 1.58594 37.6855 1.58594C39.2415 1.58594 40.4004 2.08398 41.1621 3.08008C41.9303 4.07617 42.3242 5.56706 42.3438 7.55273V10.0137ZM39.9707 7.35742C39.9707 6.02279 39.7884 5.04622 39.4238 4.42773C39.0592 3.80273 38.4798 3.49023 37.6855 3.49023C36.9108 3.49023 36.3411 3.78646 35.9766 4.37891C35.612 4.96484 35.4199 5.88281 35.4004 7.13281V10.3555C35.4004 11.6836 35.5859 12.6732 35.957 13.3242C36.3281 13.9753 36.9108 14.3008 37.7051 14.3008C38.4668 14.3008 39.0299 14.0013 39.3945 13.4023C39.7591 12.7969 39.9512 11.8529 39.9707 10.5703V7.35742ZM54.0039 16H44.4434V14.3691L49.1797 9.20312C49.8633 8.44141 50.3483 7.80664 50.6348 7.29883C50.9277 6.78451 51.0742 6.27018 51.0742 5.75586C51.0742 5.07878 50.8822 4.5319 50.498 4.11523C50.1204 3.69857 49.6094 3.49023 48.9648 3.49023C48.1966 3.49023 47.6009 3.72461 47.1777 4.19336C46.7546 4.66211 46.543 5.30339 46.543 6.11719H44.1699C44.1699 5.2513 44.3652 4.47331 44.7559 3.7832C45.153 3.08659 45.7161 2.54622 46.4453 2.16211C47.181 1.77799 48.0273 1.58594 48.9844 1.58594C50.3646 1.58594 51.4518 1.93424 52.2461 2.63086C53.0469 3.32096 53.4473 4.27799 53.4473 5.50195C53.4473 6.21159 53.2454 6.95703 52.8418 7.73828C52.4447 8.51302 51.7904 9.39518 50.8789 10.3848L47.4023 14.1055H54.0039V16ZM62.2363 16H59.873V4.58398L56.3867 5.77539V3.77344L61.9336 1.73242H62.2363V16ZM72.5391 16V1.78125H76.7383C77.9948 1.78125 79.1081 2.0612 80.0781 2.62109C81.0547 3.18099 81.8099 3.97526 82.3438 5.00391C82.8776 6.03255 83.1445 7.21094 83.1445 8.53906V9.25195C83.1445 10.5996 82.8743 11.7845 82.334 12.8066C81.8001 13.8288 81.0352 14.6165 80.0391 15.1699C79.0495 15.7233 77.9134 16 76.6309 16H72.5391ZM75.0098 3.77344V14.0273H76.6211C77.9167 14.0273 78.9095 13.6237 79.5996 12.8164C80.2962 12.0026 80.651 10.8372 80.6641 9.32031V8.5293C80.6641 6.98633 80.3288 5.80794 79.6582 4.99414C78.9876 4.18034 78.0143 3.77344 76.7383 3.77344H75.0098ZM87.9004 16H85.5273V5.43359H87.9004V16ZM85.3809 2.68945C85.3809 2.32487 85.4948 2.02214 85.7227 1.78125C85.957 1.54036 86.2891 1.41992 86.7188 1.41992C87.1484 1.41992 87.4805 1.54036 87.7148 1.78125C87.9492 2.02214 88.0664 2.32487 88.0664 2.68945C88.0664 3.04753 87.9492 3.34701 87.7148 3.58789C87.4805 3.82227 87.1484 3.93945 86.7188 3.93945C86.2891 3.93945 85.957 3.82227 85.7227 3.58789C85.4948 3.34701 85.3809 3.04753 85.3809 2.68945ZM90.0781 10.6387C90.0781 8.99805 90.4622 7.68945 91.2305 6.71289C92.0052 5.72982 93.0306 5.23828 94.3066 5.23828C95.5111 5.23828 96.4583 5.6582 97.1484 6.49805L97.2559 5.43359H99.3945V15.6777C99.3945 17.0645 98.9616 18.1582 98.0957 18.959C97.2363 19.7598 96.0742 20.1602 94.6094 20.1602C93.8346 20.1602 93.0762 19.9974 92.334 19.6719C91.5983 19.3529 91.0384 18.9329 90.6543 18.4121L91.7773 16.9863C92.5065 17.8522 93.4049 18.2852 94.4727 18.2852C95.2604 18.2852 95.8822 18.0703 96.3379 17.6406C96.7936 17.2174 97.0215 16.5924 97.0215 15.7656V15.0527C96.3379 15.8145 95.4264 16.1953 94.2871 16.1953C93.0501 16.1953 92.0378 15.7038 91.25 14.7207C90.4688 13.7376 90.0781 12.377 90.0781 10.6387ZM92.4414 10.8438C92.4414 11.9049 92.6562 12.7415 93.0859 13.3535C93.5221 13.959 94.1243 14.2617 94.8926 14.2617C95.8496 14.2617 96.5592 13.8516 97.0215 13.0312V8.38281C96.5723 7.58203 95.8691 7.18164 94.9121 7.18164C94.1309 7.18164 93.5221 7.49089 93.0859 8.10938C92.6562 8.72786 92.4414 9.63932 92.4414 10.8438ZM104.365 16H101.992V5.43359H104.365V16ZM101.846 2.68945C101.846 2.32487 101.96 2.02214 102.188 1.78125C102.422 1.54036 102.754 1.41992 103.184 1.41992C103.613 1.41992 103.945 1.54036 104.18 1.78125C104.414 2.02214 104.531 2.32487 104.531 2.68945C104.531 3.04753 104.414 3.34701 104.18 3.58789C103.945 3.82227 103.613 3.93945 103.184 3.93945C102.754 3.93945 102.422 3.82227 102.188 3.58789C101.96 3.34701 101.846 3.04753 101.846 2.68945ZM109.932 2.86523V5.43359H111.797V7.19141H109.932V13.0898C109.932 13.4935 110.01 13.7865 110.166 13.9688C110.329 14.1445 110.615 14.2324 111.025 14.2324C111.299 14.2324 111.576 14.1999 111.855 14.1348V15.9707C111.315 16.1204 110.794 16.1953 110.293 16.1953C108.47 16.1953 107.559 15.1895 107.559 13.1777V7.19141H105.82V5.43359H107.559V2.86523H109.932ZM119.932 16C119.827 15.7982 119.736 15.4694 119.658 15.0137C118.903 15.8014 117.979 16.1953 116.885 16.1953C115.824 16.1953 114.958 15.8926 114.287 15.2871C113.617 14.6816 113.281 13.9329 113.281 13.041C113.281 11.9147 113.698 11.0521 114.531 10.4531C115.371 9.84766 116.569 9.54492 118.125 9.54492H119.58V8.85156C119.58 8.30469 119.427 7.86849 119.121 7.54297C118.815 7.21094 118.35 7.04492 117.725 7.04492C117.184 7.04492 116.742 7.18164 116.396 7.45508C116.051 7.72201 115.879 8.0638 115.879 8.48047H113.506C113.506 7.90104 113.698 7.36068 114.082 6.85938C114.466 6.35156 114.987 5.95443 115.645 5.66797C116.309 5.38151 117.048 5.23828 117.861 5.23828C119.098 5.23828 120.085 5.55078 120.82 6.17578C121.556 6.79427 121.934 7.66667 121.953 8.79297V13.5586C121.953 14.5091 122.087 15.2676 122.354 15.834V16H119.932ZM117.324 14.291C117.793 14.291 118.232 14.1771 118.643 13.9492C119.059 13.7214 119.372 13.4154 119.58 13.0312V11.0391H118.301C117.422 11.0391 116.761 11.1921 116.318 11.498C115.876 11.804 115.654 12.237 115.654 12.7969C115.654 13.2526 115.804 13.6172 116.104 13.8906C116.41 14.1576 116.816 14.291 117.324 14.291ZM126.963 16H124.59V1H126.963V16ZM137.744 12.6895H132.236L131.084 16H128.516L133.887 1.78125H136.104L141.484 16H138.906L137.744 12.6895ZM132.93 10.6973H137.051L134.99 4.79883L132.93 10.6973ZM144.609 5.43359L144.678 6.6543C145.459 5.71029 146.484 5.23828 147.754 5.23828C149.954 5.23828 151.074 6.49805 151.113 9.01758V16H148.74V9.1543C148.74 8.48372 148.594 7.98893 148.301 7.66992C148.014 7.3444 147.542 7.18164 146.885 7.18164C145.928 7.18164 145.215 7.61458 144.746 8.48047V16H142.373V5.43359H144.609ZM159.854 16C159.749 15.7982 159.658 15.4694 159.58 15.0137C158.825 15.8014 157.9 16.1953 156.807 16.1953C155.745 16.1953 154.88 15.8926 154.209 15.2871C153.538 14.6816 153.203 13.9329 153.203 13.041C153.203 11.9147 153.62 11.0521 154.453 10.4531C155.293 9.84766 156.491 9.54492 158.047 9.54492H159.502V8.85156C159.502 8.30469 159.349 7.86849 159.043 7.54297C158.737 7.21094 158.271 7.04492 157.646 7.04492C157.106 7.04492 156.663 7.18164 156.318 7.45508C155.973 7.72201 155.801 8.0638 155.801 8.48047H153.428C153.428 7.90104 153.62 7.36068 154.004 6.85938C154.388 6.35156 154.909 5.95443 155.566 5.66797C156.23 5.38151 156.969 5.23828 157.783 5.23828C159.02 5.23828 160.007 5.55078 160.742 6.17578C161.478 6.79427 161.855 7.66667 161.875 8.79297V13.5586C161.875 14.5091 162.008 15.2676 162.275 15.834V16H159.854ZM157.246 14.291C157.715 14.291 158.154 14.1771 158.564 13.9492C158.981 13.7214 159.294 13.4154 159.502 13.0312V11.0391H158.223C157.344 11.0391 156.683 11.1921 156.24 11.498C155.798 11.804 155.576 12.237 155.576 12.7969C155.576 13.2526 155.726 13.6172 156.025 13.8906C156.331 14.1576 156.738 14.291 157.246 14.291ZM166.885 16H164.512V1H166.885V16ZM173.174 12.6016L175.322 5.43359H177.852L173.652 17.6016C173.008 19.3789 171.914 20.2676 170.371 20.2676C170.026 20.2676 169.645 20.209 169.229 20.0918V18.2559L169.678 18.2852C170.277 18.2852 170.726 18.1745 171.025 17.9531C171.331 17.7383 171.572 17.3737 171.748 16.8594L172.09 15.9512L168.379 5.43359H170.938L173.174 12.6016ZM185.146 13.1289C185.146 12.7057 184.971 12.3835 184.619 12.1621C184.274 11.9408 183.698 11.7454 182.891 11.5762C182.083 11.4069 181.41 11.1921 180.869 10.9316C179.684 10.3587 179.092 9.52865 179.092 8.44141C179.092 7.52995 179.476 6.76823 180.244 6.15625C181.012 5.54427 181.989 5.23828 183.174 5.23828C184.437 5.23828 185.456 5.55078 186.23 6.17578C187.012 6.80078 187.402 7.61133 187.402 8.60742H185.029C185.029 8.15169 184.86 7.77409 184.521 7.47461C184.183 7.16862 183.734 7.01562 183.174 7.01562C182.653 7.01562 182.227 7.13607 181.895 7.37695C181.569 7.61784 181.406 7.9401 181.406 8.34375C181.406 8.70833 181.559 8.99154 181.865 9.19336C182.171 9.39518 182.79 9.60026 183.721 9.80859C184.652 10.0104 185.381 10.2546 185.908 10.541C186.442 10.821 186.836 11.1595 187.09 11.5566C187.35 11.9538 187.48 12.4355 187.48 13.002C187.48 13.9525 187.087 14.724 186.299 15.3164C185.511 15.9023 184.479 16.1953 183.203 16.1953C182.337 16.1953 181.566 16.0391 180.889 15.7266C180.212 15.4141 179.684 14.9844 179.307 14.4375C178.929 13.8906 178.74 13.3014 178.74 12.6699H181.045C181.077 13.2298 181.289 13.6628 181.68 13.9688C182.07 14.2682 182.588 14.418 183.232 14.418C183.857 14.418 184.333 14.3008 184.658 14.0664C184.984 13.8255 185.146 13.513 185.146 13.1289ZM192.529 2.86523V5.43359H194.395V7.19141H192.529V13.0898C192.529 13.4935 192.607 13.7865 192.764 13.9688C192.926 14.1445 193.213 14.2324 193.623 14.2324C193.896 14.2324 194.173 14.1999 194.453 14.1348V15.9707C193.913 16.1204 193.392 16.1953 192.891 16.1953C191.068 16.1953 190.156 15.1895 190.156 13.1777V7.19141H188.418V5.43359H190.156V2.86523H192.529ZM197.695 13.5C198.138 13.5 198.48 13.627 198.721 13.8809C198.962 14.1283 199.082 14.4408 199.082 14.8184C199.082 15.1895 198.962 15.4987 198.721 15.7461C198.48 15.987 198.138 16.1074 197.695 16.1074C197.272 16.1074 196.937 15.987 196.689 15.7461C196.442 15.5052 196.318 15.196 196.318 14.8184C196.318 14.4408 196.439 14.1283 196.68 13.8809C196.921 13.627 197.259 13.5 197.695 13.5ZM201.357 10.6191C201.357 9.58398 201.562 8.65299 201.973 7.82617C202.383 6.99284 202.959 6.35482 203.701 5.91211C204.443 5.46289 205.296 5.23828 206.26 5.23828C207.686 5.23828 208.841 5.69727 209.727 6.61523C210.618 7.5332 211.1 8.75065 211.172 10.2676L211.182 10.8242C211.182 11.8659 210.98 12.7969 210.576 13.6172C210.179 14.4375 209.606 15.0723 208.857 15.5215C208.115 15.9707 207.256 16.1953 206.279 16.1953C204.788 16.1953 203.594 15.7005 202.695 14.7109C201.803 13.7148 201.357 12.39 201.357 10.7363V10.6191ZM203.73 10.8242C203.73 11.9115 203.955 12.7643 204.404 13.3828C204.854 13.9948 205.479 14.3008 206.279 14.3008C207.08 14.3008 207.702 13.9883 208.145 13.3633C208.594 12.7383 208.818 11.8236 208.818 10.6191C208.818 9.55143 208.587 8.70508 208.125 8.08008C207.669 7.45508 207.048 7.14258 206.26 7.14258C205.485 7.14258 204.87 7.45182 204.414 8.07031C203.958 8.68229 203.73 9.60026 203.73 10.8242ZM218.721 7.60156C218.408 7.54948 218.086 7.52344 217.754 7.52344C216.667 7.52344 215.934 7.9401 215.557 8.77344V16H213.184V5.43359H215.449L215.508 6.61523C216.081 5.69727 216.875 5.23828 217.891 5.23828C218.229 5.23828 218.509 5.28385 218.73 5.375L218.721 7.60156ZM219.609 10.6387C219.609 8.99805 219.993 7.68945 220.762 6.71289C221.536 5.72982 222.562 5.23828 223.838 5.23828C225.042 5.23828 225.99 5.6582 226.68 6.49805L226.787 5.43359H228.926V15.6777C228.926 17.0645 228.493 18.1582 227.627 18.959C226.768 19.7598 225.605 20.1602 224.141 20.1602C223.366 20.1602 222.607 19.9974 221.865 19.6719C221.13 19.3529 220.57 18.9329 220.186 18.4121L221.309 16.9863C222.038 17.8522 222.936 18.2852 224.004 18.2852C224.792 18.2852 225.413 18.0703 225.869 17.6406C226.325 17.2174 226.553 16.5924 226.553 15.7656V15.0527C225.869 15.8145 224.958 16.1953 223.818 16.1953C222.581 16.1953 221.569 15.7038 220.781 14.7207C220 13.7376 219.609 12.377 219.609 10.6387ZM221.973 10.8438C221.973 11.9049 222.188 12.7415 222.617 13.3535C223.053 13.959 223.656 14.2617 224.424 14.2617C225.381 14.2617 226.09 13.8516 226.553 13.0312V8.38281C226.104 7.58203 225.4 7.18164 224.443 7.18164C223.662 7.18164 223.053 7.49089 222.617 8.10938C222.188 8.72786 221.973 9.63932 221.973 10.8438ZM232.852 13.5C233.294 13.5 233.636 13.627 233.877 13.8809C234.118 14.1283 234.238 14.4408 234.238 14.8184C234.238 15.1895 234.118 15.4987 233.877 15.7461C233.636 15.987 233.294 16.1074 232.852 16.1074C232.428 16.1074 232.093 15.987 231.846 15.7461C231.598 15.5052 231.475 15.196 231.475 14.8184C231.475 14.4408 231.595 14.1283 231.836 13.8809C232.077 13.627 232.415 13.5 232.852 13.5ZM250.127 12.6895H244.619L243.467 16H240.898L246.27 1.78125H248.486L253.867 16H251.289L250.127 12.6895ZM245.312 10.6973H249.434L247.373 4.79883L245.312 10.6973ZM260.723 8.94922L261.494 1.78125H269.131V3.83203H263.467L263.076 7.23047C263.734 6.85286 264.476 6.66406 265.303 6.66406C266.657 6.66406 267.708 7.09701 268.457 7.96289C269.212 8.82878 269.59 9.99414 269.59 11.459C269.59 12.9043 269.173 14.0566 268.34 14.916C267.507 15.7689 266.364 16.1953 264.912 16.1953C263.61 16.1953 262.529 15.8275 261.67 15.0918C260.817 14.3496 260.355 13.373 260.283 12.1621H262.578C262.669 12.8522 262.917 13.3828 263.32 13.7539C263.724 14.1185 264.251 14.3008 264.902 14.3008C265.632 14.3008 266.198 14.0404 266.602 13.5195C267.012 12.9987 267.217 12.2891 267.217 11.3906C267.217 10.5247 266.992 9.84115 266.543 9.33984C266.094 8.83203 265.475 8.57812 264.688 8.57812C264.258 8.57812 263.893 8.63672 263.594 8.75391C263.294 8.86458 262.969 9.08594 262.617 9.41797L260.723 8.94922ZM280.723 10.0137C280.723 12.0579 280.339 13.6009 279.57 14.6426C278.809 15.6777 277.646 16.1953 276.084 16.1953C274.548 16.1953 273.389 15.6908 272.607 14.6816C271.833 13.666 271.436 12.1654 271.416 10.1797V7.71875C271.416 5.67448 271.797 4.14128 272.559 3.11914C273.327 2.09701 274.495 1.58594 276.064 1.58594C277.62 1.58594 278.779 2.08398 279.541 3.08008C280.309 4.07617 280.703 5.56706 280.723 7.55273V10.0137ZM278.35 7.35742C278.35 6.02279 278.167 5.04622 277.803 4.42773C277.438 3.80273 276.859 3.49023 276.064 3.49023C275.29 3.49023 274.72 3.78646 274.355 4.37891C273.991 4.96484 273.799 5.88281 273.779 7.13281V10.3555C273.779 11.6836 273.965 12.6732 274.336 13.3242C274.707 13.9753 275.29 14.3008 276.084 14.3008C276.846 14.3008 277.409 14.0013 277.773 13.4023C278.138 12.7969 278.33 11.8529 278.35 10.5703V7.35742ZM290.156 5.43359L290.225 6.6543C291.006 5.71029 292.031 5.23828 293.301 5.23828C295.501 5.23828 296.621 6.49805 296.66 9.01758V16H294.287V9.1543C294.287 8.48372 294.141 7.98893 293.848 7.66992C293.561 7.3444 293.089 7.18164 292.432 7.18164C291.475 7.18164 290.762 7.61458 290.293 8.48047V16H287.92V5.43359H290.156ZM298.643 10.6191C298.643 9.58398 298.848 8.65299 299.258 7.82617C299.668 6.99284 300.244 6.35482 300.986 5.91211C301.729 5.46289 302.581 5.23828 303.545 5.23828C304.971 5.23828 306.126 5.69727 307.012 6.61523C307.904 7.5332 308.385 8.75065 308.457 10.2676L308.467 10.8242C308.467 11.8659 308.265 12.7969 307.861 13.6172C307.464 14.4375 306.891 15.0723 306.143 15.5215C305.4 15.9707 304.541 16.1953 303.564 16.1953C302.074 16.1953 300.879 15.7005 299.98 14.7109C299.089 13.7148 298.643 12.39 298.643 10.7363V10.6191ZM301.016 10.8242C301.016 11.9115 301.24 12.7643 301.689 13.3828C302.139 13.9948 302.764 14.3008 303.564 14.3008C304.365 14.3008 304.987 13.9883 305.43 13.3633C305.879 12.7383 306.104 11.8236 306.104 10.6191C306.104 9.55143 305.872 8.70508 305.41 8.08008C304.954 7.45508 304.333 7.14258 303.545 7.14258C302.77 7.14258 302.155 7.45182 301.699 8.07031C301.243 8.68229 301.016 9.60026 301.016 10.8242ZM312.676 5.43359L312.744 6.6543C313.525 5.71029 314.551 5.23828 315.82 5.23828C318.021 5.23828 319.141 6.49805 319.18 9.01758V16H316.807V9.1543C316.807 8.48372 316.66 7.98893 316.367 7.66992C316.081 7.3444 315.609 7.18164 314.951 7.18164C313.994 7.18164 313.281 7.61458 312.812 8.48047V16H310.439V5.43359H312.676ZM326.211 10.9121H321.084V8.99805H326.211V10.9121ZM337.422 10.8242C337.422 12.4583 337.051 13.7637 336.309 14.7402C335.566 15.7103 334.57 16.1953 333.32 16.1953C332.161 16.1953 331.234 15.8145 330.537 15.0527V20.0625H328.164V5.43359H330.352L330.449 6.50781C331.146 5.66146 332.093 5.23828 333.291 5.23828C334.58 5.23828 335.589 5.72005 336.318 6.68359C337.054 7.64062 337.422 8.97201 337.422 10.6777V10.8242ZM335.059 10.6191C335.059 9.56445 334.847 8.72786 334.424 8.10938C334.007 7.49089 333.408 7.18164 332.627 7.18164C331.657 7.18164 330.96 7.58203 330.537 8.38281V13.0703C330.967 13.8906 331.67 14.3008 332.646 14.3008C333.402 14.3008 333.991 13.998 334.414 13.3926C334.844 12.7806 335.059 11.8561 335.059 10.6191ZM344.971 7.60156C344.658 7.54948 344.336 7.52344 344.004 7.52344C342.917 7.52344 342.184 7.9401 341.807 8.77344V16H339.434V5.43359H341.699L341.758 6.61523C342.331 5.69727 343.125 5.23828 344.141 5.23828C344.479 5.23828 344.759 5.28385 344.98 5.375L344.971 7.60156ZM345.674 10.6191C345.674 9.58398 345.879 8.65299 346.289 7.82617C346.699 6.99284 347.275 6.35482 348.018 5.91211C348.76 5.46289 349.613 5.23828 350.576 5.23828C352.002 5.23828 353.158 5.69727 354.043 6.61523C354.935 7.5332 355.417 8.75065 355.488 10.2676L355.498 10.8242C355.498 11.8659 355.296 12.7969 354.893 13.6172C354.495 14.4375 353.923 15.0723 353.174 15.5215C352.432 15.9707 351.572 16.1953 350.596 16.1953C349.105 16.1953 347.91 15.7005 347.012 14.7109C346.12 13.7148 345.674 12.39 345.674 10.7363V10.6191ZM348.047 10.8242C348.047 11.9115 348.271 12.7643 348.721 13.3828C349.17 13.9948 349.795 14.3008 350.596 14.3008C351.396 14.3008 352.018 13.9883 352.461 13.3633C352.91 12.7383 353.135 11.8236 353.135 10.6191C353.135 9.55143 352.904 8.70508 352.441 8.08008C351.986 7.45508 351.364 7.14258 350.576 7.14258C349.801 7.14258 349.186 7.45182 348.73 8.07031C348.275 8.68229 348.047 9.60026 348.047 10.8242ZM358.135 16V7.19141H356.523V5.43359H358.135V4.71094C358.141 3.88411 358.317 3.17448 358.662 2.58203C359.007 1.98958 359.495 1.54362 360.127 1.24414C360.758 0.944661 361.517 0.794922 362.402 0.794922C362.923 0.794922 363.421 0.85026 363.896 0.960938C364.378 1.07161 364.876 1.21159 365.391 1.38086L365.029 3.34375C364.131 3.03125 363.311 2.875 362.568 2.875C361.846 2.875 361.322 3.03451 360.996 3.35352C360.671 3.66602 360.508 4.13802 360.508 4.76953V5.43359H362.588V7.19141H360.508V16H358.135ZM366.514 16H364.141V5.43359H366.514V16ZM372.119 2.86523V5.43359H373.984V7.19141H372.119V13.0898C372.119 13.4935 372.197 13.7865 372.354 13.9688C372.516 14.1445 372.803 14.2324 373.213 14.2324C373.486 14.2324 373.763 14.1999 374.043 14.1348V15.9707C373.503 16.1204 372.982 16.1953 372.48 16.1953C370.658 16.1953 369.746 15.1895 369.746 13.1777V7.19141H368.008V5.43359H369.746V2.86523H372.119ZM380.342 10.6191C380.342 9.58398 380.547 8.65299 380.957 7.82617C381.367 6.99284 381.943 6.35482 382.686 5.91211C383.428 5.46289 384.281 5.23828 385.244 5.23828C386.67 5.23828 387.826 5.69727 388.711 6.61523C389.603 7.5332 390.085 8.75065 390.156 10.2676L390.166 10.8242C390.166 11.8659 389.964 12.7969 389.561 13.6172C389.163 14.4375 388.59 15.0723 387.842 15.5215C387.1 15.9707 386.24 16.1953 385.264 16.1953C383.773 16.1953 382.578 15.7005 381.68 14.7109C380.788 13.7148 380.342 12.39 380.342 10.7363V10.6191ZM382.715 10.8242C382.715 11.9115 382.939 12.7643 383.389 13.3828C383.838 13.9948 384.463 14.3008 385.264 14.3008C386.064 14.3008 386.686 13.9883 387.129 13.3633C387.578 12.7383 387.803 11.8236 387.803 10.6191C387.803 9.55143 387.572 8.70508 387.109 8.08008C386.654 7.45508 386.032 7.14258 385.244 7.14258C384.469 7.14258 383.854 7.45182 383.398 8.07031C382.943 8.68229 382.715 9.60026 382.715 10.8242ZM397.705 7.60156C397.393 7.54948 397.07 7.52344 396.738 7.52344C395.651 7.52344 394.919 7.9401 394.541 8.77344V16H392.168V5.43359H394.434L394.492 6.61523C395.065 5.69727 395.859 5.23828 396.875 5.23828C397.214 5.23828 397.493 5.28385 397.715 5.375L397.705 7.60156ZM398.594 10.6387C398.594 8.99805 398.978 7.68945 399.746 6.71289C400.521 5.72982 401.546 5.23828 402.822 5.23828C404.027 5.23828 404.974 5.6582 405.664 6.49805L405.771 5.43359H407.91V15.6777C407.91 17.0645 407.477 18.1582 406.611 18.959C405.752 19.7598 404.59 20.1602 403.125 20.1602C402.35 20.1602 401.592 19.9974 400.85 19.6719C400.114 19.3529 399.554 18.9329 399.17 18.4121L400.293 16.9863C401.022 17.8522 401.921 18.2852 402.988 18.2852C403.776 18.2852 404.398 18.0703 404.854 17.6406C405.309 17.2174 405.537 16.5924 405.537 15.7656V15.0527C404.854 15.8145 403.942 16.1953 402.803 16.1953C401.566 16.1953 400.553 15.7038 399.766 14.7207C398.984 13.7376 398.594 12.377 398.594 10.6387ZM400.957 10.8438C400.957 11.9049 401.172 12.7415 401.602 13.3535C402.038 13.959 402.64 14.2617 403.408 14.2617C404.365 14.2617 405.075 13.8516 405.537 13.0312V8.38281C405.088 7.58203 404.385 7.18164 403.428 7.18164C402.646 7.18164 402.038 7.49089 401.602 8.10938C401.172 8.72786 400.957 9.63932 400.957 10.8438ZM416.67 16C416.566 15.7982 416.475 15.4694 416.396 15.0137C415.641 15.8014 414.717 16.1953 413.623 16.1953C412.562 16.1953 411.696 15.8926 411.025 15.2871C410.355 14.6816 410.02 13.9329 410.02 13.041C410.02 11.9147 410.436 11.0521 411.27 10.4531C412.109 9.84766 413.307 9.54492 414.863 9.54492H416.318V8.85156C416.318 8.30469 416.165 7.86849 415.859 7.54297C415.553 7.21094 415.088 7.04492 414.463 7.04492C413.923 7.04492 413.48 7.18164 413.135 7.45508C412.79 7.72201 412.617 8.0638 412.617 8.48047H410.244C410.244 7.90104 410.436 7.36068 410.82 6.85938C411.204 6.35156 411.725 5.95443 412.383 5.66797C413.047 5.38151 413.786 5.23828 414.6 5.23828C415.837 5.23828 416.823 5.55078 417.559 6.17578C418.294 6.79427 418.672 7.66667 418.691 8.79297V13.5586C418.691 14.5091 418.825 15.2676 419.092 15.834V16H416.67ZM414.062 14.291C414.531 14.291 414.971 14.1771 415.381 13.9492C415.798 13.7214 416.11 13.4154 416.318 13.0312V11.0391H415.039C414.16 11.0391 413.499 11.1921 413.057 11.498C412.614 11.804 412.393 12.237 412.393 12.7969C412.393 13.2526 412.542 13.6172 412.842 13.8906C413.148 14.1576 413.555 14.291 414.062 14.291ZM423.379 5.43359L423.447 6.6543C424.229 5.71029 425.254 5.23828 426.523 5.23828C428.724 5.23828 429.844 6.49805 429.883 9.01758V16H427.51V9.1543C427.51 8.48372 427.363 7.98893 427.07 7.66992C426.784 7.3444 426.312 7.18164 425.654 7.18164C424.697 7.18164 423.984 7.61458 423.516 8.48047V16H421.143V5.43359H423.379ZM434.834 16H432.461V5.43359H434.834V16ZM432.314 2.68945C432.314 2.32487 432.428 2.02214 432.656 1.78125C432.891 1.54036 433.223 1.41992 433.652 1.41992C434.082 1.41992 434.414 1.54036 434.648 1.78125C434.883 2.02214 435 2.32487 435 2.68945C435 3.04753 434.883 3.34701 434.648 3.58789C434.414 3.82227 434.082 3.93945 433.652 3.93945C433.223 3.93945 432.891 3.82227 432.656 3.58789C432.428 3.34701 432.314 3.04753 432.314 2.68945ZM439.961 14.1055H445.586V16H437.012V14.4473L442.373 7.34766H437.109V5.43359H445.381V6.9375L439.961 14.1055ZM453.799 16C453.695 15.7982 453.604 15.4694 453.525 15.0137C452.77 15.8014 451.846 16.1953 450.752 16.1953C449.691 16.1953 448.825 15.8926 448.154 15.2871C447.484 14.6816 447.148 13.9329 447.148 13.041C447.148 11.9147 447.565 11.0521 448.398 10.4531C449.238 9.84766 450.436 9.54492 451.992 9.54492H453.447V8.85156C453.447 8.30469 453.294 7.86849 452.988 7.54297C452.682 7.21094 452.217 7.04492 451.592 7.04492C451.051 7.04492 450.609 7.18164 450.264 7.45508C449.919 7.72201 449.746 8.0638 449.746 8.48047H447.373C447.373 7.90104 447.565 7.36068 447.949 6.85938C448.333 6.35156 448.854 5.95443 449.512 5.66797C450.176 5.38151 450.915 5.23828 451.729 5.23828C452.965 5.23828 453.952 5.55078 454.688 6.17578C455.423 6.79427 455.801 7.66667 455.82 8.79297V13.5586C455.82 14.5091 455.954 15.2676 456.221 15.834V16H453.799ZM451.191 14.291C451.66 14.291 452.1 14.1771 452.51 13.9492C452.926 13.7214 453.239 13.4154 453.447 13.0312V11.0391H452.168C451.289 11.0391 450.628 11.1921 450.186 11.498C449.743 11.804 449.521 12.237 449.521 12.7969C449.521 13.2526 449.671 13.6172 449.971 13.8906C450.277 14.1576 450.684 14.291 451.191 14.291ZM461.279 2.86523V5.43359H463.145V7.19141H461.279V13.0898C461.279 13.4935 461.357 13.7865 461.514 13.9688C461.676 14.1445 461.963 14.2324 462.373 14.2324C462.646 14.2324 462.923 14.1999 463.203 14.1348V15.9707C462.663 16.1204 462.142 16.1953 461.641 16.1953C459.818 16.1953 458.906 15.1895 458.906 13.1777V7.19141H457.168V5.43359H458.906V2.86523H461.279ZM467.49 16H465.117V5.43359H467.49V16ZM464.971 2.68945C464.971 2.32487 465.085 2.02214 465.312 1.78125C465.547 1.54036 465.879 1.41992 466.309 1.41992C466.738 1.41992 467.07 1.54036 467.305 1.78125C467.539 2.02214 467.656 2.32487 467.656 2.68945C467.656 3.04753 467.539 3.34701 467.305 3.58789C467.07 3.82227 466.738 3.93945 466.309 3.93945C465.879 3.93945 465.547 3.82227 465.312 3.58789C465.085 3.34701 464.971 3.04753 464.971 2.68945ZM469.639 10.6191C469.639 9.58398 469.844 8.65299 470.254 7.82617C470.664 6.99284 471.24 6.35482 471.982 5.91211C472.725 5.46289 473.577 5.23828 474.541 5.23828C475.967 5.23828 477.122 5.69727 478.008 6.61523C478.9 7.5332 479.382 8.75065 479.453 10.2676L479.463 10.8242C479.463 11.8659 479.261 12.7969 478.857 13.6172C478.46 14.4375 477.887 15.0723 477.139 15.5215C476.396 15.9707 475.537 16.1953 474.561 16.1953C473.07 16.1953 471.875 15.7005 470.977 14.7109C470.085 13.7148 469.639 12.39 469.639 10.7363V10.6191ZM472.012 10.8242C472.012 11.9115 472.236 12.7643 472.686 13.3828C473.135 13.9948 473.76 14.3008 474.561 14.3008C475.361 14.3008 475.983 13.9883 476.426 13.3633C476.875 12.7383 477.1 11.8236 477.1 10.6191C477.1 9.55143 476.868 8.70508 476.406 8.08008C475.951 7.45508 475.329 7.14258 474.541 7.14258C473.766 7.14258 473.151 7.45182 472.695 8.07031C472.24 8.68229 472.012 9.60026 472.012 10.8242ZM483.672 5.43359L483.74 6.6543C484.521 5.71029 485.547 5.23828 486.816 5.23828C489.017 5.23828 490.137 6.49805 490.176 9.01758V16H487.803V9.1543C487.803 8.48372 487.656 7.98893 487.363 7.66992C487.077 7.3444 486.605 7.18164 485.947 7.18164C484.99 7.18164 484.277 7.61458 483.809 8.48047V16H481.436V5.43359H483.672ZM494.082 13.5C494.525 13.5 494.867 13.627 495.107 13.8809C495.348 14.1283 495.469 14.4408 495.469 14.8184C495.469 15.1895 495.348 15.4987 495.107 15.7461C494.867 15.987 494.525 16.1074 494.082 16.1074C493.659 16.1074 493.324 15.987 493.076 15.7461C492.829 15.5052 492.705 15.196 492.705 14.8184C492.705 14.4408 492.826 14.1283 493.066 13.8809C493.307 13.627 493.646 13.5 494.082 13.5ZM511.709 9.65234H505.869V14.0273H512.695V16H503.398V1.78125H512.627V3.77344H505.869V7.69922H511.709V9.65234ZM517.314 16H514.854V1.78125H517.314V16ZM531.631 16H529.16L522.822 5.91211V16H520.352V1.78125H522.822L529.18 11.9082V1.78125H531.631V16ZM535.752 13.5C536.195 13.5 536.536 13.627 536.777 13.8809C537.018 14.1283 537.139 14.4408 537.139 14.8184C537.139 15.1895 537.018 15.4987 536.777 15.7461C536.536 15.987 536.195 16.1074 535.752 16.1074C535.329 16.1074 534.993 15.987 534.746 15.7461C534.499 15.5052 534.375 15.196 534.375 14.8184C534.375 14.4408 534.495 14.1283 534.736 13.8809C534.977 13.627 535.316 13.5 535.752 13.5ZM535.752 5.20898C536.195 5.20898 536.536 5.33594 536.777 5.58984C537.018 5.83724 537.139 6.14974 537.139 6.52734C537.139 6.89844 537.018 7.20768 536.777 7.45508C536.536 7.69596 536.195 7.81641 535.752 7.81641C535.329 7.81641 534.993 7.69596 534.746 7.45508C534.499 7.21419 534.375 6.90495 534.375 6.52734C534.375 6.14974 534.495 5.83724 534.736 5.58984C534.977 5.33594 535.316 5.20898 535.752 5.20898ZM549.219 10.9121H544.092V8.99805H549.219V10.9121ZM553.77 7.80664H555.215C555.944 7.80013 556.52 7.61133 556.943 7.24023C557.373 6.86914 557.588 6.33203 557.588 5.62891C557.588 4.95182 557.409 4.42773 557.051 4.05664C556.699 3.67904 556.159 3.49023 555.43 3.49023C554.792 3.49023 554.268 3.67578 553.857 4.04688C553.447 4.41146 553.242 4.88997 553.242 5.48242H550.869C550.869 4.75326 551.061 4.08919 551.445 3.49023C551.836 2.89128 552.376 2.42578 553.066 2.09375C553.763 1.75521 554.541 1.58594 555.4 1.58594C556.82 1.58594 557.933 1.94401 558.74 2.66016C559.554 3.36979 559.961 4.35938 559.961 5.62891C559.961 6.26693 559.756 6.86914 559.346 7.43555C558.942 7.99544 558.418 8.41862 557.773 8.70508C558.555 8.97201 559.147 9.39193 559.551 9.96484C559.961 10.5378 560.166 11.2214 560.166 12.0156C560.166 13.2917 559.727 14.3073 558.848 15.0625C557.975 15.8177 556.826 16.1953 555.4 16.1953C554.033 16.1953 552.913 15.8307 552.041 15.1016C551.169 14.3724 550.732 13.4023 550.732 12.1914H553.105C553.105 12.8164 553.314 13.3242 553.73 13.7148C554.154 14.1055 554.72 14.3008 555.43 14.3008C556.165 14.3008 556.745 14.1055 557.168 13.7148C557.591 13.3242 557.803 12.7578 557.803 12.0156C557.803 11.2669 557.581 10.6908 557.139 10.2871C556.696 9.88346 556.038 9.68164 555.166 9.68164H553.77V7.80664ZM570.42 10.9316H572.188V12.8359H570.42V16H568.047V12.8359H561.904L561.836 11.3906L567.969 1.78125H570.42V10.9316ZM564.326 10.9316H568.047V4.99414L567.871 5.30664L564.326 10.9316ZM580.186 16H577.822V4.58398L574.336 5.77539V3.77344L579.883 1.73242H580.186V16ZM594.395 10.0137C594.395 12.0579 594.01 13.6009 593.242 14.6426C592.48 15.6777 591.318 16.1953 589.756 16.1953C588.219 16.1953 587.061 15.6908 586.279 14.6816C585.505 13.666 585.107 12.1654 585.088 10.1797V7.71875C585.088 5.67448 585.469 4.14128 586.23 3.11914C586.999 2.09701 588.167 1.58594 589.736 1.58594C591.292 1.58594 592.451 2.08398 593.213 3.08008C593.981 4.07617 594.375 5.56706 594.395 7.55273V10.0137ZM592.021 7.35742C592.021 6.02279 591.839 5.04622 591.475 4.42773C591.11 3.80273 590.531 3.49023 589.736 3.49023C588.962 3.49023 588.392 3.78646 588.027 4.37891C587.663 4.96484 587.471 5.88281 587.451 7.13281V10.3555C587.451 11.6836 587.637 12.6732 588.008 13.3242C588.379 13.9753 588.962 14.3008 589.756 14.3008C590.518 14.3008 591.081 14.0013 591.445 13.4023C591.81 12.7969 592.002 11.8529 592.021 10.5703V7.35742ZM603.877 1.71289V3.67578H603.584C602.256 3.69531 601.195 4.0599 600.4 4.76953C599.606 5.47917 599.134 6.48503 598.984 7.78711C599.746 6.98633 600.719 6.58594 601.904 6.58594C603.161 6.58594 604.15 7.02865 604.873 7.91406C605.602 8.79948 605.967 9.94206 605.967 11.3418C605.967 12.7871 605.54 13.959 604.688 14.8574C603.841 15.7493 602.728 16.1953 601.348 16.1953C599.928 16.1953 598.776 15.6712 597.891 14.623C597.012 13.5749 596.572 12.2012 596.572 10.502V9.69141C596.572 7.19792 597.178 5.24479 598.389 3.83203C599.606 2.41927 601.354 1.71289 603.633 1.71289H603.877ZM601.328 8.5C600.807 8.5 600.329 8.64648 599.893 8.93945C599.463 9.23242 599.147 9.62305 598.945 10.1113V10.834C598.945 11.8887 599.167 12.7285 599.609 13.3535C600.052 13.972 600.625 14.2812 601.328 14.2812C602.031 14.2812 602.588 14.0176 602.998 13.4902C603.408 12.9629 603.613 12.2695 603.613 11.4102C603.613 10.5508 603.405 9.85091 602.988 9.31055C602.572 8.77018 602.018 8.5 601.328 8.5ZM608.496 8.94922L609.268 1.78125H616.904V3.83203H611.24L610.85 7.23047C611.507 6.85286 612.249 6.66406 613.076 6.66406C614.43 6.66406 615.482 7.09701 616.23 7.96289C616.986 8.82878 617.363 9.99414 617.363 11.459C617.363 12.9043 616.947 14.0566 616.113 14.916C615.28 15.7689 614.137 16.1953 612.686 16.1953C611.383 16.1953 610.303 15.8275 609.443 15.0918C608.59 14.3496 608.128 13.373 608.057 12.1621H610.352C610.443 12.8522 610.69 13.3828 611.094 13.7539C611.497 14.1185 612.025 14.3008 612.676 14.3008C613.405 14.3008 613.971 14.0404 614.375 13.5195C614.785 12.9987 614.99 12.2891 614.99 11.3906C614.99 10.5247 614.766 9.84115 614.316 9.33984C613.867 8.83203 613.249 8.57812 612.461 8.57812C612.031 8.57812 611.667 8.63672 611.367 8.75391C611.068 8.86458 610.742 9.08594 610.391 9.41797L608.496 8.94922ZM619.863 8.94922L620.635 1.78125H628.271V3.83203H622.607L622.217 7.23047C622.874 6.85286 623.617 6.66406 624.443 6.66406C625.798 6.66406 626.849 7.09701 627.598 7.96289C628.353 8.82878 628.73 9.99414 628.73 11.459C628.73 12.9043 628.314 14.0566 627.48 14.916C626.647 15.7689 625.505 16.1953 624.053 16.1953C622.751 16.1953 621.67 15.8275 620.811 15.0918C619.958 14.3496 619.495 13.373 619.424 12.1621H621.719C621.81 12.8522 622.057 13.3828 622.461 13.7539C622.865 14.1185 623.392 14.3008 624.043 14.3008C624.772 14.3008 625.339 14.0404 625.742 13.5195C626.152 12.9987 626.357 12.2891 626.357 11.3906C626.357 10.5247 626.133 9.84115 625.684 9.33984C625.234 8.83203 624.616 8.57812 623.828 8.57812C623.398 8.57812 623.034 8.63672 622.734 8.75391C622.435 8.86458 622.109 9.08594 621.758 9.41797L619.863 8.94922Z" fill="white"/>
</svg>
